<?xml version="1.0" encoding="UTF-8"?>
<svg id="Layer_1" xmlns="http://www.w3.org/2000/svg" version="1.1" viewBox="0 0 212 95.4">
  <!-- Generator: Adobe Illustrator 29.3.0, SVG Export Plug-In . SVG Version: 2.1.0 Build 146)  -->
  <defs>
    <style>
      .st0 {
        stroke: #fff;
      }

      .st0, .st1 {
        fill: none;
        stroke-miterlimit: 10;
        stroke-width: 3px;
      }

      .st2 {
        fill: #d7b065;
      }

      .st3 {
        fill: #fff;
      }

      .st1 {
        stroke: #231f20;
      }
    </style>
  </defs>
  <g id="a870f8c4-ac73-4a69-9cd1-34be1ab924a0">
    <path class="st3" d="M16.7,37.6c0-5.3,5.1-7.6,9.7-7.6s10.5,2.1,10.5,8-4.8,7.6-10.1,7.6-5.5.5-5.5,3.3v2.2h15.7v4.4h-20.4v-6.6c0-5.8,5.3-7.5,10.2-7.5s5.4-.3,5.4-3.2-2.5-4-5.7-4-5,1.3-5.1,3.5h-4.7Z"/>
    <path class="st3" d="M45.9,44.6v-3.9h3.6c2.6,0,5.3-.7,5.3-3,0-1.4-1.2-3.3-5.2-3.3s-5.3.8-5.3,3.1h-4.8c0-5.4,5.4-7.4,10-7.4s9.9,2.3,9.9,7.7c0,2.2-1.4,4.2-3.5,5,2.3.8,3.9,2.9,4.1,5.3,0,6.2-5.8,8-10.7,8s-10.3-2-10.3-7.7h4.8c0,2.6,3.5,3.5,5.5,3.5s5.6-1,5.6-3.7-.8-3.4-5.4-3.4h-3.9Z"/>
  </g>
  <rect class="st3" x="64.9" y="11.5" width="4.4" height="61.5"/>
  <rect class="st2" x="76.7" y="17.2" width="119.8" height="49.7"/>
  <path class="st3" d="M147.9,11.5c.3,0,.5.3.4.6,0,.3-.1.5-.4.6-2.7.6-5.4,1-8.1,1.2-2.9.2-6.2.4-9.9.4-3.7,0-6.5.1-8.2.2-1.3,0-2.7.2-4.3.3-1,1.9-3.4,6.5-7.4,13.6-3.9,7.1-6.8,12.7-8.7,16.7-1,2.3-2.4,5.6-4.1,9.9-1.7,4.2-3.3,8.1-4.9,11.6-1.5,3.3-3.1,6.4-5,9.4-.2.3-.5.4-.8.3-.3-.1-.5-.4-.4-.8.4-2.1,1-4.2,1.7-6.3.7-2.2,1.6-4.4,2.5-6.5,1-2.3,1.9-4.2,2.7-5.8.8-1.6,1.8-3.7,3.2-6.3,1.4-2.6,2.3-4.5,2.9-5.7,5.4-10.9,10.8-20.9,16.3-30-2.4.2-6,.6-10.8,1.1-4.8.5-8.5.9-10.9,1.1v-.7c-.2,0-.4,0-.4-.2,0,0,0,0,0,0,0-.2.1-.4.4-.4,0,0,0,0,0,0,9.8-1.3,19.2-2.3,28.2-3.1,1.2-.1,3.3-.3,6.3-.6s5.3-.6,7-.7c1.7-.2,3.8-.2,6.2-.2,2.2,0,4.5.1,6.7.4Z"/>
  <path class="st3" d="M122.7,46.1c.2,0,.4.2.5.4,0,.2,0,.4,0,.6-.4.8-1.2,1.3-2.1,1.4-.9,0-1.8,0-2.6-.4-.2.3-.6.8-1.1,1.5-.5.8-1,1.4-1.3,1.8-.4.5-.9.8-1.4,1.1-.6.3-1.2.4-1.8.2-.8-.2-1.4-.9-1.4-1.8-1.5,2.4-3,3.5-4.4,3.2-.4,0-.8-.2-1.1-.5-.3-.2-.5-.5-.5-.9,0-.4-.1-.7-.1-1.1,0-.5.1-.9.3-1.3.2-.5.4-1,.5-1.4.2-.5.4-.9.7-1.4.3-.5.5-.9.7-1.2s.4-.6.6-1c.3-.4.4-.6.4-.7.2-.4.5-.4.9-.3.3,0,.5.4.5.7,0,0,0,0,0,.1-.1.3-.3.7-.6,1.4s-.5,1.2-.7,1.7c-.2.5-.3,1-.4,1.4-.2.8-.2,1.3,0,1.3.5-.5.9-1.1,1.2-1.8.1-.3.5-.8,1-1.7.5-.9.9-1.6,1.3-2.1.4-.5.8-1,1.2-1.5.3-.4.9-.5,1.3-.3.5.2.8.6.8,1.1,0,1-.2,2-.5,2.9,0,.1-.1.4-.3.8-.4.9-.5,1.3-.4,1.4,0,0,.3-.2.7-.7.1-.2.3-.4.5-.6.3-.4.6-.9.9-1.3.3-.5.6-1,.9-1.4.3-.4.7-.8,1.1-1.1.3-.2.7-.3,1.1-.2.4,0,.7.3.9.6,0,0,.3.2.7.2.4,0,.9.2,1.4.3.5,0,.8.2.9.2Z"/>
  <path class="st3" d="M132.1,49.4c.2,0,.4,0,.6.3.2.2.2.4.1.6-.3.7-.7,1.3-1.3,1.7-.5.4-1,.8-1.5,1.2-.4.3-1.1.6-1.9,1-2.3,1.2-4.1,1.6-5.5,1.1-.9-.2-1.7-.8-2.1-1.6-.4-.8-.4-1.7-.1-2.5.3-.9.6-1.7,1-2.5.4-.8.9-1.5,1.5-2.2,1.8-2.3,3.3-3.5,4.7-3.7.6-.1,1.3,0,1.8.4.5.3.9.9.9,1.6,0,1.6-.7,3.2-2.1,4.1-1.3,1.1-2.9,1.6-4.6,1.5-.6,1.2-.5,2,.1,2.2.1,0,.6,0,1.4-.3.9-.3,1.9-.7,2.8-1.2.4-.2.9-.4,1.3-.7.5-.3,1-.6,1.6-.8.4-.2.9-.3,1.4-.3ZM127.5,45.8c-.9.2-1.9,1.2-3,3.1.8-.1,1.5-.5,2.1-1,.4-.4.8-.8,1.1-1.3,0-.1,0-.2.1-.3.1-.2.2-.3.2-.4,0,0-.2,0-.5,0Z"/>
  <path class="st3" d="M143.1,47.5c.3-.2.7-.2,1,0,.3.2.4.6.3.9-.1.7-.4,1.4-.8,2.1-.3.6-.7,1.1-1.2,1.6-.4.4-.9.9-1.6,1.5,0,0-.2.2-.4.3-.2.1-.3.3-.4.4-.1.1-.3.2-.4.4-.2.1-.3.2-.4.3-.1.1-.3.2-.5.3-.2,0-.3.1-.5.2-.2,0-.3,0-.5,0-.2,0-.3,0-.5-.1-.4-.1-.8-.4-1-.9-.2-.4-.3-.9-.3-1.4,0-.5,0-.9,0-1.4,0-.4,0-.8.1-1.2,0-.4.1-.8.2-1.2,0-.3.1-.7.3-1.2,0-.4.2-.7.2-1.1-.2.3-.5.6-.9,1-.4.4-.6.7-.7.8-1.5,1.6-2.4,2.6-2.9,3-.4.4-.9.5-1.4.2-.5-.2-.7-.7-.6-1.1,0,0,0,0,0-.1.6-1.6,1.3-3.2,1.8-4.8,0-.4.4-.6.8-.6,0,0,.1,0,.2,0,.4,0,.7.4.6.8,0,0,0,0,0,.1,0,0,0,.2,0,.3,0,0,0,.2,0,.2.8-.8,1.2-1.3,1.4-1.5.4-.4.6-.6.8-.8.2-.2.4-.4.7-.6.3-.2.6-.4.9-.5.3,0,.7-.2,1-.2.4,0,.7.1.9.4.2.2.4.6.4.9,0,1.2-.2,2.4-.5,3.6-.3,1.2-.5,2.3-.6,3.5.4-.3.7-.7,1.1-1.1.4-.5.6-.8.7-.8,0,0,.2-.2.4-.4.2-.2.3-.3.4-.4,0,0,.2-.2.3-.4.1-.1.2-.3.4-.4.1,0,.2-.2.4-.3s.3-.2.4-.3c.1-.1.3-.2.5-.3Z"/>
  <path class="st3" d="M190.1,25.7c.3,0,.5.1.6.4.1.2.1.5,0,.7-.1.2-.4.3-.6.3-3.4-.4-6.6-.5-9.6-.6-3,0-5.4,0-7.2.2-1.9.2-4.5.4-7.9.8-3.4.3-6.5.6-9.2.8-.6,1.4-1.7,3.7-3.2,7.1-1.5,3.4-2.6,5.7-3.1,6.9-.6,1.2-1.5,3.2-2.7,5.9-1.2,2.7-2.1,4.9-2.8,6.5-.7,1.6-1.5,3.6-2.5,6-1,2.4-2,4.8-2.9,7-.9,2.3-1.8,4.7-2.8,7.2-.1.5-.7.9-1.2.7,0,0,0,0-.1,0-.6,0-.9-.6-.8-1.2,0,0,0,0,0-.1.5-3,1.3-5.9,2.4-8.7,1.1-3.1,2.2-5.8,3.2-7.9,1-2.1,2.4-5,4.2-8.5,1.8-3.5,3.1-6.1,3.8-7.6,1-2.3,2.2-4.5,3.3-6.6,1.2-2.1,2.3-4.3,3.4-6.6-5.8.4-10.9.5-15.3.4-.2,0-.5-.1-.5-.4-.1-.2,0-.5.2-.6.5-.5.9-.9,1.1-1.1.3-.3.6-.2.9.2.2.3.1.5-.1.6,1.2-.4,2.5-.6,3.8-.6,2.1-.2,4.4-.3,6.8-.4,2.4,0,3.8-.2,4.1-.2.7-1.5,1.7-3.7,3.1-6.5,1.4-2.9,2.4-5,3.1-6.5.1-.2.4-.4.6-.4.4,0,.8.4.7.9,0,0,0,.1,0,.2-1,2.1-2.8,6.2-5.5,12.1,1.2-.1,3.1-.2,5.6-.4,2.5-.1,5.4-.3,8.6-.4,3.2-.1,6.6-.1,10,0,2.9,0,5.8.2,8.6.5Z"/>
  <path class="st3" d="M160.8,44.1c.3-.4,1-.5,1.4-.1,0,0,0,0,0,0,.5.3.6.9.3,1.4-2.6,5.5-6.5,13.8-11.6,24.8-.2.4-.6,1.3-1.3,2.7-.7,1.4-1.1,2.4-1.4,2.9-.2.5-.7,1.4-1.3,2.6-.6,1.3-1.1,2.2-1.4,2.8-.3.6-.7,1.5-1.3,2.6-.6,1.2-1,2.1-1.5,2.9-.4.8-.9,1.6-1.4,2.6s-1.1,2-1.6,2.9c-.5.9-1.1,1.8-1.6,2.7-.2.3-.6.5-.9.3,0,0,0,0,0,0-.3,0-.5-.4-.5-.7,0,0,0,0,0-.1.9-2.7,2.1-5.6,3.6-8.9,1.5-3.3,2.6-5.7,3.3-7.2.8-1.6,2.1-4.4,4.2-8.5,3.2-6.4,6.4-13.1,9.8-19.9-2.2,1.9-4.2,2.7-6.2,2.5-.4,0-.8-.3-.9-.7-.1-.3-.2-.7-.2-1,0-.3,0-.7,0-1,0-.4,0-.7.1-1.1,0-.4.2-.8.2-1,0-.2.1-.6.3-1.1.1-.5.2-.8.2-.9,0-.3.2-.5.5-.5.3,0,.5,0,.7.2.2.2.3.4.2.7-.3,2.1.2,3.1,1.5,2.8,1.4-.3,3.6-1.9,6.7-4.9Z"/>
  <path class="st1" d="M15.2,84.2"/>
  <polyline class="st0" points="15.2 84.2 1.5 84.2 1.5 1.5 210.5 1.5 210.5 84.2 76.7 84.2"/>
  <path class="st3" d="M24.3,84.4l5.4-7.4v11.3h-2.2v-4.6l-3.2,4.4-3.2-4.4v4.6h-2.2v-11.3l5.4,7.4Z"/>
  <path class="st3" d="M40.9,77.3v2.2h-4.4v2.2h3.3v2.2h-3.3v2.2h4.4v2.2h-6.6v-11.1h6.6Z"/>
  <path class="st3" d="M48.1,77.3c1.5,0,3,.6,4,1.6,2,2.2,2,5.6,0,7.8-1.1,1.1-2.5,1.7-4,1.6h-2.9v-11h2.9ZM48.1,79.5h-.7v6.6h.7c1.8,0,3.3-1.5,3.3-3.3,0-1.8-1.5-3.3-3.3-3.3h0Z"/>
  <path class="st3" d="M57.8,77.3h2.2v11h-2.2v-11Z"/>
  <path class="st3" d="M69.3,77.1l5,11.2h-2.4l-.7-1.7h-3.8l-.7,1.7h-2.4l5-11.2ZM70.3,84.7l-1-2.3-1,2.3h2Z"/>
</svg>